<svg xmlns="http://www.w3.org/2000/svg" width="45" height="45" viewBox="0 0 45 45"><defs><style>.a{fill:#fff;}</style></defs><title>Zeichenfläche 1</title><rect class="a" width="45" height="45"/><polygon points="14 30.1 20.5 30.1 20.5 28.5 18 28.5 18 23.6 26.7 23.6 26.7 28.5 24.3 28.5 24.3 30.1 30.7 30.1 30.7 28.5 28.5 28.5 28.5 17.1 30.7 17.1 30.7 15.6 24.3 15.6 24.3 17.1 26.7 17.1 26.7 22 18 22 18 17.1 20.5 17.1 20.5 15.6 14 15.6 14 17.1 16.2 17.1 16.2 28.5 14 28.5 14 30.1"/><polygon points="0.6 1.5 0.6 44.1 27.8 44.1 27.8 42.5 2.3 42.5 2.3 33.7 5.6 33.7 5.6 39.6 7.1 39.6 7.1 36.7 7.2 36.4 7.2 21 10.4 21 10.4 34.8 34.5 34.8 34.5 24.2 37.4 24.2 37.8 24.3 39.4 24.3 39.4 5.9 5.6 5.9 5.6 16.4 7.2 16.4 7.2 7.4 37.8 7.4 37.8 22.6 34.5 22.6 34.5 10.7 19.5 10.7 19.5 12.2 33 12.2 33 33.3 12 33.3 12 12.2 16.5 12.2 16.5 10.7 10.4 10.7 10.4 19.4 5.6 19.4 5.6 32.1 2.3 32.1 2.3 3.2 42.9 3.2 42.9 42.5 32.3 42.5 32.3 39.6 39.4 39.6 39.4 27.2 37.8 27.2 37.8 38.1 10.1 38.1 10.1 39.6 30.7 39.6 30.7 44.1 44.4 44.1 44.4 1.5 0.6 1.5"/></svg>